<svg data-v-423bf9ae="" xmlns="http://www.w3.org/2000/svg" viewBox="0 0 500 90" class="iconLeft"><!----><!----><!----><g data-v-423bf9ae="" id="935ea76d-910e-4e55-bc08-a52650762b29" fill="black" transform="matrix(5.853658536585366,0,0,5.853658536585366,119.98474153948993,-6.073168742947459)"><path d="M1.37 13.65L2.59 13.65L2.59 9.52L6.36 9.52L6.36 8.44L2.59 8.44L2.59 5.47L6.94 5.47L6.94 4.40L1.37 4.40ZM12.43 13.85C15.19 13.85 16.62 11.76 16.62 8.89C16.62 5.92 15.09 4.20 12.50 4.20C9.77 4.20 8.34 6.13 8.34 9.00C8.34 11.80 9.70 13.85 12.43 13.85ZM12.43 12.84C10.81 12.84 9.69 11.79 9.69 9.06C9.69 6.38 10.77 5.21 12.50 5.21C14.20 5.21 15.27 6.33 15.27 8.96C15.27 11.59 14.20 12.84 12.43 12.84ZM18.17 11.12C18.07 12.42 19.14 13.85 21.32 13.85C23.48 13.85 24.60 12.67 24.60 11.23C24.60 8.01 19.67 9.02 19.67 6.52C19.67 5.70 20.29 5.21 21.32 5.21C22.61 5.21 23.27 5.80 23.31 6.93L24.49 6.68C24.56 5.22 23.30 4.20 21.38 4.20C19.54 4.20 18.42 5.17 18.42 6.66C18.42 10.18 23.35 9.09 23.35 11.42C23.35 12.32 22.53 12.84 21.35 12.84C20.22 12.84 19.36 12.25 19.35 10.86ZM26.12 11.12C26.03 12.42 27.09 13.85 29.27 13.85C31.43 13.85 32.55 12.67 32.55 11.23C32.55 8.01 27.62 9.02 27.62 6.52C27.62 5.70 28.24 5.21 29.27 5.21C30.56 5.21 31.22 5.80 31.26 6.93L32.44 6.68C32.51 5.22 31.25 4.20 29.33 4.20C27.50 4.20 26.38 5.17 26.38 6.66C26.38 10.18 31.30 9.09 31.30 11.42C31.30 12.32 30.48 12.84 29.30 12.84C28.17 12.84 27.31 12.25 27.30 10.86ZM34.72 13.65L35.94 13.65L35.94 9.41L36.27 9.41L39.66 13.65L41.24 13.65L37.27 8.74L41.01 4.40L39.51 4.40L36.26 8.23L35.94 8.23L35.94 4.40L34.72 4.40ZM42.35 5.00C42.35 5.43 42.67 5.75 43.11 5.75C43.53 5.75 43.86 5.43 43.86 5.00C43.86 4.58 43.53 4.24 43.11 4.24C42.67 4.24 42.35 4.58 42.35 5.00ZM42.56 13.65L43.68 13.65L43.68 7.22L42.56 7.22ZM48.44 13.85C50.53 13.85 51.41 12.32 51.41 10.33C51.41 8.25 50.41 7.03 48.44 7.03C46.40 7.03 45.44 8.44 45.44 10.33C45.44 12.47 46.33 13.85 48.44 13.85ZM48.44 12.92C47.28 12.92 46.65 12.08 46.65 10.47C46.65 8.88 47.28 7.95 48.44 7.95C49.59 7.95 50.20 8.85 50.20 10.47C50.20 11.96 49.59 12.92 48.44 12.92ZM52.70 11.86C52.56 13.27 53.98 13.85 55.29 13.85C56.76 13.85 57.82 13.12 57.82 11.84C57.82 9.46 54.05 10.36 54.05 8.75C54.05 8.20 54.53 7.95 55.26 7.95C56.41 7.95 56.57 8.64 56.49 9.09L57.61 8.89C57.83 7.64 56.67 7.03 55.31 7.03C53.69 7.03 52.91 7.87 52.91 8.95C52.91 11.28 56.64 10.49 56.64 12.05C56.64 12.64 56.07 12.92 55.24 12.92C54.17 12.92 53.69 12.38 53.76 11.69ZM63.39 13.65L64.83 13.65L61.96 10.12L64.88 7.22L63.43 7.22L60.93 9.72L60.65 9.72L60.65 3.60L59.53 3.60L59.53 13.65L60.65 13.65L60.65 10.61L60.96 10.61Z"></path></g><!----><g data-v-423bf9ae="" id="30b26b2e-280f-4c39-a3c8-4e88d08e4da0" transform="matrix(1.4173228346456692,0,0,1.4173228346456692,-15.967847133245996,-25.616141732283467)" stroke="none" fill="black"><path d="M43.649 18.25L11.899 50l31.75 31.75v-12.7L24.6 50l19.049-19.05zM56.352 81.75L88.102 50l-31.75-31.75v12.7L75.398 50 56.352 69.05z"></path><path d="M50 58.98L41.02 50 50 41.02 58.98 50z"></path></g><!----></svg>